<?xml version="1.0" encoding="utf-8"?>
<!-- Generator: Adobe Illustrator 21.0.2, SVG Export Plug-In . SVG Version: 6.00 Build 0)  -->
<svg version="1.1" id="Layer_1" xmlns="http://www.w3.org/2000/svg" xmlns:xlink="http://www.w3.org/1999/xlink" x="0px" y="0px"
	 viewBox="0 0 194 31" style="enable-background:new 0 0 194 31;" xml:space="preserve">
<style type="text/css">
	.st0{fill:#6D6E71;}
	.st1{fill:#F15B40;}
</style>
<g>
	<rect x="0.2" y="0.8" class="st0" width="4.3" height="29.7"/>
	<path class="st0" d="M25.4,25.7c0,1.8,0.1,3.5,0.3,4.9h-3.8L21.5,28h-0.1c-1.3,1.6-3.8,3-7.2,3c-4.7,0-7.2-2.9-7.2-5.8
		c0-4.9,5-7.6,14.1-7.5v-0.4c0-1.7-0.5-4.7-5.3-4.7c-2.2,0-4.5,0.5-6.1,1.5l-1-2.5c1.9-1,4.8-1.8,7.7-1.8c7.2,0,8.9,4.2,8.9,8.3
		V25.7z M21.2,20.2c-4.6-0.1-9.9,0.6-9.9,4.6c0,2.4,1.8,3.5,4,3.5c3.1,0,5.1-1.7,5.7-3.4c0.1-0.4,0.2-0.8,0.2-1.2V20.2z"/>
	<path class="st0" d="M69,21.1c0.1,4.9,3.7,7,8,7c3.1,0,4.9-0.5,6.5-1l0.8,2.6c-1.5,0.6-4.1,1.3-7.8,1.3c-7.2,0-11.5-4.1-11.5-10.2
		c0-6.1,4.2-10.9,11-10.9c7.6,0,9.6,5.8,9.6,9.5c0,0.8,0,1.3-0.1,1.7H69z M81.4,18.4c0-2.3-1.1-6-5.9-6c-4.4,0-6.2,3.4-6.5,6H81.4z"
		/>
	<rect x="88.1" y="0.8" class="st0" width="4.3" height="29.7"/>
	<path class="st0" d="M98.8,21.1c0.1,4.9,3.7,7,8,7c3,0,4.9-0.5,6.5-1l0.8,2.6c-1.5,0.6-4.1,1.3-7.8,1.3c-7.2,0-11.5-4.1-11.5-10.2
		c0-6.1,4.2-10.9,11-10.9c7.6,0,9.6,5.8,9.6,9.5c0,0.8,0,1.3-0.1,1.7H98.8z M111.2,18.4c0-2.3-1.1-6-5.9-6c-4.4,0-6.2,3.4-6.5,6
		H111.2z"/>
	<path class="st0" d="M135.5,29.8c-1.1,0.5-3.6,1.2-6.7,1.2c-7.1,0-11.7-4.1-11.7-10.3c0-6.2,4.9-10.8,12.6-10.8
		c2.5,0,4.7,0.5,5.9,1.1l-1,2.8c-1-0.5-2.6-1-4.9-1c-5.4,0-8.3,3.5-8.3,7.7c0,4.7,3.5,7.6,8.1,7.6c2.4,0,4-0.5,5.2-1L135.5,29.8z"/>
	<path class="st0" d="M147.2,31c-6.3,0-11.2-4-11.2-10.4c0-6.8,5.2-10.8,11.6-10.8c6.7,0,11.3,4.2,11.3,10.4
		C158.9,27.7,152.8,31,147.2,31L147.2,31z M147.4,28.2c4.1,0,7.1-3.3,7.1-7.9c0-3.4-2-7.7-7-7.7c-5,0-7.2,4-7.2,7.9
		C140.3,24.9,143.2,28.2,147.4,28.2L147.4,28.2z"/>
	<path class="st0" d="M160.5,15.7c0-2.1-0.1-3.8-0.2-5.5h3.7l0.2,3.3h0.1c1.3-1.9,3.5-3.7,7.4-3.7c3.1,0,5.6,1.7,6.6,4.1h0.1
		c0.7-1.2,1.7-2,2.7-2.6c1.4-0.9,2.9-1.4,5.1-1.4c3.1,0,7.7,1.8,7.7,8.8v11.9h-4.2V19c0-3.9-1.7-6.2-5.1-6.2c-2.5,0-4.3,1.5-5.1,3.3
		c-0.2,0.6-0.3,1.2-0.3,1.8v12.6h-4.2V18.3c0-3.2-1.6-5.5-4.9-5.5c-2.6,0-4.6,1.9-5.3,3.7c-0.2,0.6-0.3,1.2-0.3,1.8v12.2h-4.2V15.7z
		"/>
	<path class="st1" d="M45.3,31.1V28c-0.6,0.2-1.3,0.3-2.5,0.3c-2.4,0-3.2-1.8-3.2-4.3V12.4h9.6v11.7c0,2.4,0.5,5,1.6,6.1
		c0.4,0.4,0.9,0.7,1.4,0.9H45.3z M62.5,9.2V2.8c0-1.3-1-2.3-2.3-2.3H31.3c-1.3,0-2.3,1-2.3,2.3v6.5H62.5z M53.4,12.4v11.6
		c0,2.5,0.8,4.3,3.2,4.3c1.2,0,1.8-0.1,2.5-0.3v3.2h1.1c1.3,0,2.3-1,2.3-2.3V12.4H53.4z M37.1,30.2c-1.2-1.1-1.7-3.7-1.7-6.1V12.4
		H29v16.4c0,1.3,1,2.3,2.3,2.3h7.3C38,30.9,37.5,30.6,37.1,30.2 M35.1,5.1c0-1.3,1.1-2.4,2.4-2.4c1.3,0,2.4,1.1,2.4,2.4
		c0,1.3-1.1,2.4-2.4,2.4C36.2,7.4,35.1,6.4,35.1,5.1 M49,5.1c0-1.3,1.1-2.4,2.4-2.4c1.3,0,2.4,1.1,2.4,2.4c0,1.3-1.1,2.4-2.4,2.4
		C50.1,7.4,49,6.4,49,5.1"/>
</g>
</svg>
